<mxfile host="app.diagrams.net" modified="2023-08-11T07:59:48.785Z" agent="Mozilla/5.0 (Macintosh; Intel Mac OS X 10_15_7) AppleWebKit/605.1.15 (KHTML, like Gecko) Version/16.5.1 Safari/605.1.15" version="21.6.8" etag="LjFAQ2vREZH3mGXlCNQp" type="github">
  <diagram name="Page-1" id="ycOwFDdCkMOupzSo2RaD">
    <mxGraphModel>
      <root>
        <mxCell id="0" />
        <mxCell id="1" parent="0" />
      </root>
    </mxGraphModel>
  </diagram>
</mxfile>
